<svg width="44" height="75" viewBox="0 0 44 75" fill="none" xmlns="http://www.w3.org/2000/svg">
<path d="M43.4173 69.4662C43.887 69.1756 44.0322 68.5593 43.7416 68.0897L39.0067 60.4359C38.7161 59.9662 38.0998 59.821 37.6301 60.1116C37.1605 60.4021 37.0153 61.0184 37.3058 61.4881L41.5147 68.2915L34.7113 72.5003C34.2416 72.7909 34.0964 73.4072 34.387 73.8768C34.6776 74.3465 35.2939 74.4917 35.7635 74.2011L43.4173 69.4662ZM3.05662 0.26101L2.0913 -6.01468e-05C-0.447989 9.38903 -1.47628 24.1166 3.71614 37.8465C8.93319 51.6415 20.4038 64.345 42.6619 69.5891L42.8912 68.6158L43.1205 67.6424C21.5165 62.5524 10.571 50.3181 5.58683 37.139C0.578065 23.8948 1.56355 9.61205 4.02194 0.522083L3.05662 0.26101Z" fill="black"/>
</svg>
